<?xml version="1.0" encoding="utf-8"?>
<!-- Generator: Adobe Illustrator 24.0.1, SVG Export Plug-In . SVG Version: 6.00 Build 0)  -->
<svg version="1.1" id="Layer_1" xmlns="http://www.w3.org/2000/svg" xmlns:xlink="http://www.w3.org/1999/xlink" x="0px" y="0px"
	 viewBox="0 0 724.4 724.4" style="enable-background:new 0 0 724.4 724.4;" xml:space="preserve">
<style type="text/css">
	.st0{fill:#FFFFFF;}
</style>
<path class="st0" d="M615.8,362.2c0,48,0,96,0,144c0,1.7-0.5,2.7-2,3.6c-31.1,17.9-62.2,35.8-93.3,53.8
	c-28,16.2-56.1,32.4-84.1,48.6c-24.2,14-48.4,28-72.6,42c-1.1,0.7-2,0.5-3-0.1c-34.7-20-69.3-40-104-60
	c-30.4-17.6-60.9-35.1-91.3-52.7c-18.5-10.7-36.9-21.3-55.4-31.9c-0.9-0.5-1.3-1.1-1.3-2.2c0-7,0-13.9,0-20.9c0-89.5,0-179,0-268.5
	c0-1.6,0.6-2.4,1.9-3.1c23.8-13.7,47.5-27.4,71.3-41.2c16.4-9.5,32.9-18.9,49.3-28.4c26.7-15.4,53.3-30.8,80-46.2
	c16.6-9.6,33.2-19.1,49.7-28.7c1-0.6,1.9-0.6,2.9,0c20,11.6,40.1,23.1,60.1,34.7c19.4,11.2,38.9,22.4,58.3,33.6
	c19.8,11.5,39.7,22.9,59.5,34.4c24.3,14,48.6,28.1,73,42.1c1.1,0.7,1.3,1.5,1.3,2.6C615.8,265.8,615.8,314,615.8,362.2z
	 M141.4,362.1c0,41.8,0,83.6,0,125.4c0,1.5,0.4,2.3,1.7,3.1c10.8,6.2,21.5,12.4,32.3,18.6c28.8,16.6,57.5,33.2,86.3,49.8
	c33.1,19.1,66.2,38.2,99.3,57.3c1,0.6,1.6,0.5,2.6,0c14.2-8.2,28.4-16.4,42.7-24.6c29.6-17.1,59.2-34.2,88.9-51.3
	c28.7-16.5,57.3-33.1,86-49.5c1.5-0.8,2-1.7,2-3.4c0-83.5,0-167,0-250.4c0-0.2,0-0.5,0-0.7c0.1-1-0.3-1.6-1.2-2.1
	c-6.1-3.5-12.2-7-18.2-10.5c-35.9-20.7-71.9-41.5-107.8-62.2c-30.7-17.7-61.5-35.5-92.2-53.2c-1-0.6-1.6-0.5-2.6,0
	c-10.1,5.9-20.2,11.7-30.3,17.5c-25.7,14.8-51.4,29.6-77.1,44.5c-36.8,21.2-73.5,42.4-110.3,63.6c-1.4,0.8-1.8,1.6-1.8,3.2
	C141.4,278.6,141.4,320.3,141.4,362.1z"/>
<path class="st0" d="M564.4,474.8c-10.9,0-21.7,0-32.9,0c0-28.8,0-57.4,0-86.2c-13.4,0-26.5,0-39.7,0c0,0.7,0,1.4,0,2
	c0,32.7,0,65.3,0,98c0,1.9-0.6,2.9-2.2,3.9c-24.5,14.5-48.9,29.1-73.3,43.6c-17.9,10.7-35.8,21.3-53.7,32c-1.1,0.7-2,0.8-3.2,0.1
	c-18.2-10.6-36.5-21.2-54.7-31.7c-28.3-16.4-56.7-32.8-85-49.2c-14.4-8.3-28.7-16.6-43.1-24.9c-1.1-0.6-1.4-1.3-1.4-2.5
	c0-65.8,0-131.7,0-197.5c0-1.3,0.4-2,1.5-2.6c29.9-18.2,59.7-36.4,89.6-54.7c27.3-16.7,54.6-33.3,81.9-50c4.9-3,9.8-6,15-9.2
	c0.1,1.5,0.2,2.8,0.3,4.2c0.4,9.8,0.4,19.7,1.2,29.4c0.3,3.8-0.8,5.7-4,7.6c-22,13.3-44,26.7-65.9,40.1
	c-28.2,17.2-56.4,34.4-84.6,51.6c-1,0.6-1.3,1.3-1.3,2.4c0,53.1,0,106.2,0,159.3c0,1.1,0.4,1.6,1.3,2.2
	c23.8,13.8,47.6,27.5,71.4,41.3c26,15,52,30.1,77.9,45.2c1,0.6,1.8,0.5,2.7-0.1c19.2-11.4,38.3-22.8,57.5-34.2
	c12.4-7.4,24.8-14.8,37.2-22.1c1-0.6,1.3-1.2,1.3-2.4c-0.1-7.1,0-14.3,0-21.4c-0.1-19.5-0.2-39-0.4-58.5c-0.1-14.5-0.1-29-0.2-43.5
	c-0.1-14.6-0.1-29.2-0.2-43.8c-0.1-14.9-0.2-29.7-0.2-44.5c-0.1-14.6-0.1-29.2-0.1-43.8c0-0.3,0-0.6,0.1-1.2c2.8,1.5,5.5,3,8.1,4.4
	c21.1,11.7,42.3,23.3,63.4,35c11.2,6.2,22.5,12.4,33.7,18.6c1,0.5,1.4,1.1,1.3,2.2c-0.1,0.8,0,1.5,0,2.3c0.1,20.2,0.1,40.4,0.2,60.6
	c0,13.1,0.1,26.2,0.2,39.3c0.1,14.3,0.1,28.6,0.2,43c0.1,13.4,0.1,26.8,0.2,40.1C564.4,464.2,564.4,469.4,564.4,474.8z M531,355.7
	c0-0.7,0-1.2,0-1.8c0-11.1-0.1-22.3-0.1-33.4c0-9.1,0-18.2,0-27.2c0-1.1-0.3-1.8-1.3-2.3c-11.2-6.1-22.3-12.2-33.4-18.4
	c-1.4-0.8-2.8-1.5-4.3-2.3c0,28.6,0,57.1,0,85.5C505,355.7,517.9,355.7,531,355.7z"/>
<path class="st0" d="M410.6,302.2c-2.6-1.4-5-2.6-7.4-3.9c-15.5-8.2-31-16.4-46.5-24.6c-1-0.5-1.6-0.5-2.5,0.2
	c-14.6,10.2-29.2,20.3-43.8,30.4c-9.3,6.4-18.6,12.9-27.9,19.3c-1,0.7-1.5,1.4-1.5,2.7c0,24.4,0.1,48.8,0,73.2c0,1.7,0.6,2.6,2,3.4
	c25.2,14.4,50.4,28.8,75.6,43.3c1.6,0.9,2.6,0.8,4-0.3c10.5-8.3,21-16.5,31.5-24.8c0.5-0.4,1.1-1.2,1.1-1.8c0.1-10.4,0-20.8,0-31.1
	c0-0.2-0.1-0.3-0.1-0.7c-15.3,0-30.7,0-46.2,0c0-11.1,0-21.9,0-32.9c26.4,0,52.6,0,79.1,0c0,0.8,0,1.5,0,2.2c0,26.6,0,53.2,0,79.8
	c0,1.2-0.4,1.9-1.3,2.6c-21.1,15.2-42.2,30.4-63.2,45.6c-0.9,0.6-1.5,0.6-2.5,0.1c-29.5-16.6-59.1-33.2-88.7-49.8
	c-7.5-4.2-15-8.4-22.5-12.6c-1.2-0.7-1.7-1.4-1.7-2.8c0-36.4,0.1-72.9,0-109.3c0-2.6,0.8-4,3-5.5c25.1-17,50.2-34,75.3-51.1
	c9.5-6.5,19-12.9,28.5-19.4c1-0.7,1.6-0.4,2.4,0c7.8,4.1,15.5,8.2,23.3,12.3c9.8,5.2,19.6,10.5,29.5,15.6c1.1,0.6,1.4,1.3,1.4,2.5
	c-0.2,11.4-0.3,22.9-0.4,34.3C410.9,299.9,410.7,301,410.6,302.2z"/>
</svg>
